# xmcd
#
# Track frame offsets:
#	150
#	22292
#	38490
#	62535
#	82710
#	107777
#	138697
#	162390
#	187322
#	218990
#	244922
#	273362
#	296865
#
# Disc length: 4238 seconds
#
# Revision: 3
# Processed by: cddbd v1.5.2PL0 Copyright (c) Steve Scherf et al.
# Submitted via: EasyCDDAExtractor 2010.6.0.0
#
DISCID=c7108c0d
DTITLE=Blues Company - More Blues, Ballads and Assorted Love Songs
DYEAR=2008
DGENRE=Blues
TTITLE0=Commercials
TTITLE1=Invitation To The Blues
TTITLE2=Over The City
TTITLE3=Shake It Don't Break It
TTITLE4=Seven Fourty Seven
TTITLE5=Same Old Feeling (live)
TTITLE6=Christmas Eve In Germany
TTITLE7=The River (live)
TTITLE8=Kids
TTITLE9=Keepin' The Blues Alive (live)
TTITLE10=Blues Is A Feeling
TTITLE11=My Guitar And Me
TTITLE12=Run Your Finger Through My Hair
EXTD=
EXTT0=
EXTT1=
EXTT2=
EXTT3=
EXTT4=
EXTT5=
EXTT6=
EXTT7=
EXTT8=
EXTT9=
EXTT10=
EXTT11=
EXTT12=
PLAYORDER=
